# xmcd
#
# Track frame offsets:
#	150
#	20592
#	41034
#
# Disc length: 836 seconds
#
# Revision: 4
# Processed by: cddbd v1.5.2PL0 Copyright (c) Steve Scherf et al.
# Submitted via: EasyCDDAExtractor 11.0.0.1
#
DISCID=1f034203
DTITLE=ΜΠΙΓΑΛΗΣ ΚΩΣΤΑΣ - LET ME BE THE ONE
DYEAR=1998
DGENRE=ΠΟΠ
TTITLE0=LET ME BE THE ONE
TTITLE1=ΘΑΥΜΑ ΤΗΣ ΑΓΑΠΗΣ
TTITLE2=LET ME BE THE ONE DANCE MIX
EXTD=YEAR: 1998
EXTT0=
EXTT1=
EXTT2=
PLAYORDER=
